inDegrees=yes
name=ik_S48_A10_T02
DataType=double
version=3
OpenSimVersion=4.3-2021-08-27-4bc7ad9
endheader
time	pelvis_tilt	pelvis_list	pelvis_rotation	pelvis_tx	pelvis_ty	pelvis_tz	hip_flexion_r	hip_adduction_r	hip_rotation_r	knee_angle_r	knee_angle_r_beta	ankle_angle_r	subtalar_angle_r	mtp_angle_r	hip_flexion_l	hip_adduction_l	hip_rotation_l	knee_angle_l	knee_angle_l_beta	ankle_angle_l	subtalar_angle_l	mtp_angle_l	lumbar_extension	lumbar_bending	lumbar_rotation	arm_flex_r	arm_add_r	arm_rot_r	elbow_flex_r	pro_sup_r	wrist_flex_r	wrist_dev_r	arm_flex_l	arm_add_l	arm_rot_l	elbow_flex_l	pro_sup_l	wrist_flex_l	wrist_dev_l
5.239999999999976	1.77142241071105	2.69762100495667	48.03414114618941	0	0.9399999999999999	0	45.25441073280226	-10.00028669178277	-10.0173965251396	54.75518654012578	0.9556582876688772	0	0	0	45.25441073280226	-10.00028669178277	-10.0173965251396	54.75518654012578	0.9556582876688772	0	0	0	2.892478476522633	1.627082637131526	4.371576241703139	69.02304331788191	1.042180289317309	-11.64198599705396	33.71357385798673	104.7564797748187	0	0	65.77861012662079	-27.92849652425647	14.44606882786796	52.93603294098228	49.05618156765988	0	0
5.259999999999976	1.735382177038038	2.65125413956308	47.99573372368111	0	0.9399999999999999	0	45.25429987511044	-10.00028626144682	-10.01737969735539	54.75525895435936	0.9556595515356784	0	0	0	45.25429987511044	-10.00028626144682	-10.01737969735539	54.75525895435936	0.9556595515356784	0	0	0	2.836149621390168	1.617073023976819	4.316713270536071	69.13847155637974	1.256890415922436	-11.53372941131261	34.36532053922959	103.7696379626787	0	0	64.88486836320577	-27.86053239416085	13.14414689685057	55.76003320551699	48.87917184170422	0	0
5.279999999999975	1.648202614451959	2.559931408802716	48.15837741514159	0	0.9399999999999999	0	45.2485905658676	-10.00027153848557	-10.01670641223299	54.76016404951504	0.9557451615962687	0	0	0	45.2485905658676	-10.00027153848557	-10.01670641223299	54.76016404951504	0.9557451615962687	0	0	0	2.723264999086322	1.58067295170941	4.019946719425501	67.68955871721938	1.687019992030555	-11.56215917421309	36.53404231285951	102.676861233477	0	0	62.53561659236267	-27.57598839093782	10.37232287348456	59.36586017748989	49.82018105576235	0	0
5.299999999999975	1.597395629197696	2.458945708695859	47.89544173050108	0	0.9399999999999999	0	45.24845586558581	-10.0002710299451	-10.01668627150893	54.76025197835941	0.9557466962441102	0	0	0	45.24845586558581	-10.0002710299451	-10.01668627150893	54.76025197835941	0.9557466962441102	0	0	0	2.608673626631298	1.564088122175189	4.154105019193922	67.00429439885409	2.090551447845006	-11.8257718399188	37.77750542101923	101.802261711017	0	0	61.38523546103328	-27.40114290646238	9.204907347974075	63.91990282859386	48.69462963865568	0	0
5.319999999999975	1.579336541124596	2.448489816566886	47.77554807861631	0	0.9399999999999999	0	45.24833419078018	-10.00027056816846	-10.01666801046585	54.76033091363734	0.9557480739246061	0	0	0	45.24833419078018	-10.00027056816846	-10.01666801046585	54.76033091363734	0.9557480739246061	0	0	0	2.588701005085767	1.573431828597528	4.211896351700995	66.05288992463137	2.399198916187148	-12.13069425584941	38.7022497788405	102.2868556125558	0	0	59.91295868187868	-26.99612510160057	8.190080021210962	66.58577729877338	48.02649218144903	0	0
5.339999999999974	1.54728289136167	2.415962812157331	47.66178092156508	0	0.9399999999999999	0	45.24822611310641	-10.00027015916662	-10.01665181813834	54.76040116065479	0.9557492999663503	0	0	0	45.24822611310641	-10.00027015916662	-10.01665181813834	54.76040116065479	0.9557492999663503	0	0	0	2.548675389415315	1.573075101164349	4.166109325122873	64.87170106539274	2.905308933061894	-12.28130784032587	40.456889966179	101.0984183987875	0	0	58.18808589400203	-26.62157269674093	6.947662696797812	69.28551250541639	47.29578917824272	0	0
5.359999999999974	1.464580134688607	2.284948739844397	47.56288939254233	0	0.9399999999999999	0	45.24809365663485	-10.00026965648988	-10.01663193215712	54.76048693844785	0.9557507970712643	0	0	0	45.24809365663485	-10.00026965648988	-10.01663193215712	54.76048693844785	0.9557507970712643	0	0	0	2.397360132116196	1.545220949671291	4.145639540874545	63.72589100598569	3.344050284184767	-12.63104180265058	41.84741625424195	101.5994799928519	0	0	58.47198610087587	-26.76043411129135	6.975468253795286	70.05868464954548	46.27643780677851	0	0
5.379999999999973	1.41115421044	2.225647575378483	47.75055057487118	0	0.9399999999999999	0	45.24795855903772	-10.00026914662223	-10.0166117197437	54.76057479458444	0.955752330450116	0	0	0	45.24795855903772	-10.00026914662223	-10.0166117197437	54.76057479458444	0.955752330450116	0	0	0	2.325390982117395	1.504982944767598	3.802166789720355	62.38204386453994	4.14983469953413	-12.66079505048159	44.44129319719332	96.42509487309482	0	0	56.64288289281903	-26.5223496138079	5.568226330846542	72.80844567191974	45.42819674871174	0	0
5.399999999999973	1.400828080647645	2.214876754548126	47.65155520930634	0	0.9399999999999999	0	45.24782761241359	-10.00026865202352	-10.01659211317438	54.76065978482135	0.955753813809582	0	0	0	45.24782761241359	-10.00026865202352	-10.01659211317438	54.76065978482135	0.955753813809582	0	0	0	2.313331752361516	1.501526339082229	3.802548539712785	62.39284458918021	4.251102845855415	-12.61446127616253	44.46636449890745	96.45085566781064	0	0	54.4745404973865	-26.23944528679446	4.337118366760196	75.43979287674784	44.61346334790556	0	0
5.419999999999972	1.302067408936958	2.072051795366148	47.98036627695151	0	0.9399999999999999	0	45.24769059115834	-10.00026813602921	-10.01657163315454	54.76074887058783	0.9557553686495237	0	0	0	45.24769059115834	-10.00026813602921	-10.01657163315454	54.76074887058783	0.9557553686495237	0	0	0	2.14568185320091	1.451427828178963	3.423065495043105	61.19179805335427	5.170372218003524	-12.20206580455946	47.04023674840141	89.8831048237396	0	0	54.81656965265209	-26.26522654387634	4.653234875503733	76.13449378279732	43.28027935121246	0	0
5.439999999999972	1.232145469738002	1.957283186290446	48.16945529926689	0	0.9399999999999999	0	45.24216377202393	-10.00025431306989	-10.01593063984934	54.76550093479785	0.9558383078162549	0	0	0	45.24216377202393	-10.00025431306989	-10.01593063984934	54.76550093479785	0.9558383078162549	0	0	0	2.014882771684079	1.393115590916252	3.07897338792068	58.08770618022623	5.861425153131503	-11.44845551595221	51.07854338829956	88.55381580825825	0	0	51.34709148773558	-25.10409452638589	2.402403450987741	78.17388785818555	45.79465497509888	0	0
5.459999999999972	1.193975179637911	1.9321586016567	48.35169459245542	0	0.9399999999999999	0	45.23810828595663	-10.00024453109427	-10.01546961802853	54.76900312636041	0.9558994325900571	0	0	0	45.23810828595663	-10.00024453109427	-10.01546961802853	54.76900312636041	0.9558994325900571	0	0	0	1.982168525838257	1.372190967894721	2.833632841156108	56.53064817911562	5.994388940344538	-10.52690124427882	53.34634131731586	88.72231132516272	0	0	49.579667266705	-24.2535879470059	1.412385533202046	78.04589863837609	49.20241740210912	0	0
5.479999999999971	1.107385292492635	1.825119182868039	48.42442483867654	0	0.9399999999999999	0	45.23553551849945	-10.00023833788322	-10.01517752916184	54.77121240107462	0.9559379917079012	0	0	0	45.23553551849945	-10.00023833788322	-10.01517752916184	54.77121240107462	0.9559379917079012	0	0	0	1.833152007915912	1.361574414704305	2.642551427832758	55.09647813038013	6.41374723812576	-9.454655661170424	52.60774099496428	84.98728149920042	0	0	47.68317733799626	-23.23469069791187	1.217373820257518	76.72642417865839	52.16284520708315	0	0
5.499999999999971	1.11589067166342	1.822123697490427	48.30594913070614	0	0.9399999999999999	0	45.23544583643507	-10.00023802156789	-10.01516459955254	54.77127087770456	0.955939012317629	0	0	0	45.23544583643507	-10.00023802156789	-10.01516459955254	54.77127087770456	0.955939012317629	0	0	0	1.833315280406047	1.362558399959392	2.766323606359553	55.07869934566558	6.410829554497607	-9.480562062857235	52.6603338067244	85.00602187491494	0	0	45.89091692022911	-22.33050798101312	1.190708789695427	76.75374310416409	52.27623622235651	0	0
5.51999999999997	1.133974365633592	1.840171605371763	48.24409796149296	0	0.9399999999999999	0	45.23004316674952	-10.00022535670843	-10.01456041786093	54.77594658925914	0.9560206188791299	0	0	0	45.23004316674952	-10.00022535670843	-10.01456041786093	54.77594658925914	0.9560206188791299	0	0	0	1.855929400435242	1.373207741594178	2.691812918805097	51.09316901837843	6.926283760932117	-8.274324848410563	53.42376475595091	86.1310823229244	0	0	42.15730993364689	-19.4833323442245	-0.2134328206744907	76.37436542462733	53.76863835539906	0	0
5.53999999999997	1.077154085296997	1.718322068361997	48.21795690950943	0	0.9399999999999999	0	45.22938352992112	-10.00022367186239	-10.01448285895108	54.77648850200124	0.9560300770407381	0	0	0	45.22938352992112	-10.00022367186239	-10.01448285895108	54.77648850200124	0.9560300770407381	0	0	0	1.727672803175986	1.328256848711285	2.621275519264861	51.34910698846417	7.223123419143371	-8.314907884112538	50.27182949617562	86.53002194346426	0	0	41.23713627134652	-19.31985822447813	-1.098479140117972	75.06291718903469	52.59945689375536	0	0
5.559999999999969	1.040486956021931	1.642226494463999	48.08485641908533	0	0.9399999999999999	0	45.22637764947238	-10.00021671943566	-10.014148593113	54.7790530646779	0.9560748371033196	0	0	0	45.22637764947238	-10.00021671943566	-10.014148593113	54.7790530646779	0.9560748371033196	0	0	0	1.648592748982365	1.307905647726574	2.672399526198285	49.97205769504532	6.103609742114078	-10.32485009750807	47.88338078576304	88.02422725034751	0	0	40.01296347500445	-19.48354139502229	-2.901155706690469	70.72980020128983	54.30283847774151	0	0
5.579999999999969	1.071373476116446	1.708609863230645	48.29985803261571	0	0.9399999999999999	0	45.22361393409481	-10.00021060233297	-10.01384891288869	54.78144810728118	0.9561166384824724	0	0	0	45.22361393409481	-10.00021060233297	-10.01384891288869	54.78144810728118	0.9561166384824724	0	0	0	1.728832899906175	1.306175751973099	2.398812752560982	48.54154220468001	5.684354461876487	-10.76161635385672	46.15609035027465	89.16807777309829	0	0	38.54379228864177	-18.85778887527342	-5.481480381824475	68.01912918589267	57.70995600777439	0	0
5.599999999999969	1.097347293159233	1.720709486809741	48.35342864385974	0	0.9399999999999999	0	45.22344322124194	-10.00021004102877	-10.01382523018392	54.78155987027775	0.9561185891147445	0	0	0	45.22344322124194	-10.00021004102877	-10.01382523018392	54.78155987027775	0.9561185891147445	0	0	0	1.755149614939561	1.292271964320777	2.382242958797009	47.00221518966357	5.708674292551358	-10.75227608360056	47.62075893356977	89.25623214921765	0	0	38.50306670532449	-18.63273998989203	-5.402805823505953	66.13678917110742	58.72866865362951	0	0
5.619999999999968	1.071083330802721	1.603656569725182	48.48260785864158	0	0.9399999999999999	0	45.22172854199133	-10.00020614277134	-10.0136365451752	54.78302468772888	0.9561441550022073	0	0	0	45.22172854199133	-10.00020614277134	-10.0136365451752	54.78302468772888	0.9561441550022073	0	0	0	1.650025092818704	1.231445455946826	2.313449459569693	45.92265424103723	5.831255635578721	-10.69986783680075	45.97766572256244	90.46013201094824	0	0	37.67082913269532	-17.56172346260911	-6.477289761148317	62.84997258274762	61.86736324422223	0	0
